<?xml version="1.0" encoding="UTF-8"?>
<svg version="1.1" xmlns="http://www.w3.org/2000/svg" width="1702" height="826">
<path d="M0 0 C2.01592342 -0.00692793 4.03182713 -0.01898604 6.04772568 -0.03116226 C91.66550899 -0.42829176 178.45110195 23.34402829 245.311306 78.36791611 C245.89170639 78.84390244 246.47210678 79.31988876 247.07009506 79.81029892 C262.09101432 92.22748231 276.40674678 105.90975712 288.311306 121.36791611 C289.2558698 122.52690675 290.20405493 123.68295165 291.155056 124.83666611 C298.12870427 133.33038303 304.44098557 142.07943442 310.311306 151.36791611 C310.67256577 151.93349228 311.03382553 152.49906845 311.40603256 153.08178329 C336.59193562 192.75820592 352.23444423 237.24964975 359.561306 283.55541611 C359.71244858 284.50223251 359.86359116 285.44904892 360.01931381 286.42455673 C362.79192064 305.16312294 363.69353463 323.94681416 363.623806 342.86791611 C363.62198318 343.90629623 363.62016037 344.94467636 363.61828232 346.01452255 C363.35438423 435.87740801 332.35291376 527.38331793 275.311306 597.36791611 C274.28816381 598.65487678 273.26610075 599.94269582 272.24489975 601.23119736 C265.69948778 609.44246592 258.86767629 617.27680627 251.66628647 624.91576767 C249.61363917 627.11561382 247.62113313 629.36789421 245.623806 631.61791611 C233.51119365 645.09347213 233.51119365 645.09347213 227.311306 648.36791611 C226.651306 648.36791611 225.991306 648.36791611 225.311306 648.36791611 C223.68484513 649.75643177 222.11082987 651.20653468 220.561306 652.68041611 C214.71569156 658.12600598 208.54200653 663.04252147 202.20779037 667.90404892 C200.2881584 669.38578339 198.38489406 670.88671208 196.483181 672.39135361 C180.03572539 685.30888883 162.51755927 697.06549569 144.311306 707.36791611 C143.15840073 708.02340439 143.15840073 708.02340439 141.98220444 708.69213486 C96.92349443 734.16085983 48.68368178 752.63097365 -1.688694 764.36791611 C-2.33072769 764.51875656 -2.97276138 764.66959702 -3.63425064 764.82500839 C-85.86463879 784.1116883 -171.13956495 786.26846747 -631.688694 678.36791611 C-632.74736679 677.93832596 -632.74736679 677.93832596 -633.82742691 677.50005722 C-661.48286391 666.25618975 -688.46644252 653.38510067 -715.49728775 640.73119736 C-722.55402196 637.42814652 -729.62023395 634.14578355 -736.688694 630.86791611 C-749.47842804 624.9346179 -762.25608977 618.97572869 -775.03049088 613.00951767 C-779.37132251 610.9823784 -783.7133253 608.95776423 -788.0558815 606.93432236 C-790.5168956 605.78735122 -792.97782712 604.64020308 -795.438694 603.49291611 C-796.34641052 603.06974609 -796.34641052 603.06974609 -797.27246475 602.63802719 C-804.7944294 599.13034099 -812.30958951 595.60850229 -819.81760025 592.07104111 C-820.58456223 591.70973099 -821.3515242 591.34842087 -822.14172745 590.97616196 C-826.56607481 588.8914671 -830.98925636 586.80432311 -835.41150284 584.71517563 C-837.36016916 583.79780385 -839.31246326 582.88855617 -841.26535416 581.98022079 C-843.34262205 581.00188124 -845.40873792 579.99866934 -847.45187759 578.95092392 C-850.89945248 577.2303706 -852.85016191 576.2710382 -856.73166275 576.71947861 C-860.83292999 579.00578611 -864.36587811 581.78345176 -868.001194 584.74291611 C-876.66767667 591.6393332 -885.57118289 598.0845491 -894.688694 604.36791611 C-895.34015396 604.81699326 -895.99161392 605.2660704 -896.66281509 605.72875595 C-899.26463748 607.52016393 -901.86807119 609.30918664 -904.47409439 611.09447861 C-909.75619617 614.71546548 -915.00740139 618.37921772 -920.251194 622.05541611 C-921.09746353 622.64790146 -921.94373306 623.24038681 -922.81564713 623.85082626 C-927.11626201 626.86206204 -931.41315416 629.87838554 -935.704319 632.90307236 C-952.08433473 644.4112333 -968.75774164 655.47261354 -985.43426895 666.5442009 C-990.64024559 670.00180435 -995.83666885 673.47319387 -1001.0246315 676.95775986 C-1030.53226698 696.76615936 -1060.67821051 715.22570485 -1092.05099869 731.95287704 C-1094.33911076 733.18037589 -1096.61424806 734.4272517 -1098.8840065 735.68822861 C-1121.73294854 748.28127457 -1145.93856546 758.21853331 -1170.688694 766.36791611 C-1171.52030045 766.64458115 -1172.35190689 766.92124619 -1173.20871353 767.20629501 C-1188.05080375 772.07900538 -1204.0417037 775.80909503 -1219.688694 776.36791611 C-1220.68385025 776.40787704 -1221.6790065 776.44783798 -1222.704319 776.48900986 C-1242.73302651 776.90022728 -1261.99488656 772.81842893 -1276.938694 758.74291611 C-1298.88359403 735.42425829 -1300.43833054 701.56503326 -1299.82492447 671.2795372 C-1298.75384549 640.52536611 -1292.78381215 610.22739424 -1285.688694 580.36791611 C-1285.25000992 578.5145665 -1285.25000992 578.5145665 -1284.80246353 576.62377548 C-1267.04702712 502.21825161 -1243.52819396 414.83266106 -1164.688694 341.36791611 C-1159.48982273 338.41778292 -1154.12117328 335.85386255 -1148.688694 333.36791611 C-1147.83017838 332.95799423 -1146.97166275 332.54807236 -1146.0871315 332.12572861 C-1104.30749862 313.60486042 -1053.86036737 328.10957665 -1013.688694 343.36791611 C-977.46294651 357.5820547 -942.30170331 375.72015966 -908.563694 395.02025986 C-902.13777686 398.69486295 -895.66457826 402.28232317 -889.188694 405.86791611 C-880.5256148 410.67098101 -871.87663989 415.49756851 -863.251194 420.36791611 C-862.30260513 420.90102402 -861.35401627 421.43413193 -860.37668228 421.98339462 C-856.46368626 424.19034112 -852.57312419 426.40807585 -848.77072525 428.80150986 C-847.71240494 429.46279892 -846.65408463 430.12408798 -845.563694 430.80541611 C-844.71549088 431.36100204 -843.86728775 431.91658798 -842.9933815 432.48900986 C-840.71780008 433.58950595 -840.71780008 433.58950595 -838.329319 432.90697861 C-834.67999945 430.78000834 -831.69408548 428.125567 -828.563694 425.30541611 C-827.22099287 424.11803107 -825.87723686 422.93183785 -824.532444 421.74682236 C-823.87631119 421.16690536 -823.22017838 420.58698837 -822.54416275 419.98949814 C-819.24578128 417.10688633 -815.83410078 414.36701418 -812.4308815 411.61010361 C-809.31869359 409.06538016 -806.25139526 406.4717723 -803.188694 403.86791611 C-799.24223276 400.51339515 -795.27227165 397.19569649 -791.251194 393.93041611 C-787.00476642 390.47517154 -782.83580976 386.94085035 -778.688694 383.36791611 C-772.76754344 378.26834525 -766.76016608 373.28805719 -760.688694 368.36791611 C-754.78483869 363.57049342 -748.92125721 358.73342135 -743.126194 353.80541611 C-738.5217947 349.89154184 -733.86102324 346.06531671 -729.126194 342.30932236 C-726.58756458 340.28736912 -724.0733607 338.23819341 -721.563694 336.18041611 C-710.25440442 326.91286005 -698.91320864 317.69698153 -687.38888931 308.69750595 C-685.13782541 306.93712485 -682.89295779 305.16893366 -680.64792252 303.40087509 C-648.07409667 277.75963038 -615.00240564 252.82751529 -581.05539322 229.02807236 C-579.39445514 227.86298272 -577.73472869 226.6961648 -576.07590103 225.52807236 C-561.81244385 215.48886086 -547.35959653 205.80058491 -532.688694 196.36791611 C-531.66453384 195.70759384 -530.64037369 195.04727158 -529.58517838 194.36693954 C-493.0082061 170.79184963 -455.7307577 148.49804952 -417.688694 127.36791611 C-416.83485123 126.89337997 -415.98100845 126.41884384 -415.10129166 125.92992783 C-408.72103623 122.38448478 -408.72103623 122.38448478 -405.92355728 120.83691025 C-402.58178138 118.98649598 -399.24995831 117.12301039 -395.94260025 115.21166611 C-319.16821371 70.97715054 -231.27592512 38.32566257 -66.73422623 3.62505722 C-64.7611203 3.37702072 -62.7888518 3.12235012 -60.81662369 2.86742783 C-40.59726746 0.37035024 -20.34963636 0.05857032 0 0 Z M-431.688694 292.36791611 C-433.19934026 293.14864064 -434.71107637 293.9272597 -436.22385025 294.70385361 C-440.20186696 296.75900126 -444.15435502 298.85860489 -448.09885025 300.97729111 C-449.88897383 301.93850377 -451.68075049 302.89664187 -453.47385025 303.85229111 C-467.68655302 311.42729824 -481.68366552 319.31460147 -495.54660416 327.51147079 C-498.812928 329.44131745 -502.08453593 331.36198988 -505.35666275 333.28197861 C-532.76246102 349.39910924 -559.45093103 366.55982689 -586.00094986 384.0385704 C-587.92235009 385.30280836 -589.84455518 386.56582392 -591.76755142 387.8276329 C-601.88896429 394.46913981 -611.95420478 401.14729082 -621.7577858 408.25146103 C-625.78644115 411.16061665 -629.88738504 413.95621623 -634.001194 416.74291611 C-642.26456907 422.37005589 -650.44765446 428.10241869 -658.60031509 433.88842392 C-660.6957539 435.37291762 -662.79503691 436.85179951 -664.89572525 438.32885361 C-674.45847364 445.05471593 -683.95533241 451.86727516 -693.42258072 458.72680283 C-697.91462007 461.97992592 -702.41227651 465.22528247 -706.90988541 468.47069931 C-710.82630794 471.2975101 -714.73877457 474.12958758 -718.64572525 476.96947861 C-719.86485611 477.85409775 -719.86485611 477.85409775 -721.10861588 478.75658798 C-722.66190618 479.88383295 -724.21405814 481.0126488 -725.76486588 482.14330673 C-728.69704933 484.26920693 -731.56193077 486.29458744 -734.70041275 488.11010361 C-735.35654556 488.52518173 -736.01267838 488.94025986 -736.688694 489.36791611 C-736.688694 490.02791611 -736.688694 490.68791611 -736.688694 491.36791611 C-735.77394302 491.85034775 -734.85919205 492.33277939 -733.91672134 492.82983017 C-730.40060637 494.68473313 -726.88558159 496.54169465 -723.37082291 498.39916611 C-721.87240471 499.19071147 -720.3737218 499.98175601 -718.87472916 500.77221298 C-710.7947673 505.03345047 -702.73769421 509.33007602 -694.73083878 513.72742844 C-682.49827059 520.44372709 -670.13108032 526.86270936 -657.688694 533.18041611 C-655.61662732 534.23477064 -653.54460643 535.28921519 -651.47262955 536.34374619 C-646.44375005 538.90149823 -641.41235856 541.45425561 -636.37955093 544.00426865 C-633.94119214 545.23995745 -631.50354394 546.47703402 -629.06613541 547.71459579 C-612.61936623 556.05926783 -596.04400589 564.08237987 -579.26340103 571.73656845 C-576.85115012 572.83741947 -574.44044111 573.94103937 -572.03195572 575.05004501 C-502.0895905 607.24519762 -428.78781204 635.19444897 -309.688694 653.36791611 C-308.51677505 653.47571396 -307.34485611 653.58351181 -306.13742447 653.69457626 C-288.05498083 655.28727966 -272.6836394 653.42618416 -255.27414322 648.39281845 C-251.78056297 647.39417689 -248.27564141 646.47337473 -244.75510025 645.57494736 C-182.27915085 629.40877015 -118.1778273 603.20211862 -67.43234634 562.75756454 C-65.88690261 561.52588354 -64.32964479 560.30905849 -62.77072525 559.09447861 C-57.67939078 555.10034645 -52.83903314 550.88197367 -48.05978775 546.52025986 C-45.94366289 544.59936233 -43.79560131 542.72802178 -41.626194 540.86791611 C-34.37865367 534.52267999 -27.94741038 527.69619726 -21.93478775 520.17260361 C-20.47182909 518.34581348 -18.98572445 516.53724662 -17.47385025 514.75072861 C10.57824116 481.52206497 26.61898216 440.05045298 23.311306 396.36791611 C19.97691745 365.89232188 5.29465137 340.11429222 -15.688694 318.36791611 C-16.68642838 317.29283798 -16.68642838 317.29283798 -17.704319 316.19604111 C-58.47113578 273.37375457 -125.16433049 258.88445027 -181.688694 254.36791611 C-182.3604567 254.31006943 -183.03221939 254.25222275 -183.72433853 254.19262314 C-259.58076038 247.8508682 -363.74434444 256.0724048 -431.688694 292.36791611 Z M-1092.688694 506.36791611 C-1110.07013714 527.84077037 -1117.13691625 553.02869835 -1115.688694 580.36791611 C-1114.45184994 590.27315034 -1110.66871491 599.55103531 -1102.688694 605.86791611 C-1094.72154645 611.16936392 -1086.6848556 611.42773589 -1077.39572525 609.78588486 C-1059.2311344 605.20815713 -1044.35874626 593.96859744 -1029.35080338 583.25707626 C-1025.72462864 580.68376921 -1022.05296424 578.18056391 -1018.376194 575.68041611 C-1009.69625946 569.73876782 -1001.1841319 563.56939137 -992.688694 557.36791611 C-991.88963638 556.78574326 -991.09057877 556.2035704 -990.26730728 555.60375595 C-980.87377621 548.75286295 -971.57090059 541.81597412 -962.47385025 534.57494736 C-960.78591623 533.23738393 -959.07044948 531.93240396 -957.30978775 530.69213486 C-956.77482681 530.25514267 -956.23986588 529.81815048 -955.688694 529.36791611 C-955.688694 528.70791611 -955.688694 528.04791611 -955.688694 527.36791611 C-974.09325314 518.57002396 -992.53966997 509.88737003 -1011.188694 501.61791611 C-1011.93469864 501.28670761 -1012.68070328 500.95549911 -1013.44931412 500.614254 C-1018.18755898 498.51308441 -1022.9335537 496.43055784 -1027.688694 494.36791611 C-1028.83942398 493.86816269 -1029.99015396 493.36840927 -1031.17575455 492.85351181 C-1032.75030411 492.18195053 -1032.75030411 492.18195053 -1034.35666275 491.49682236 C-1035.25409195 491.11340683 -1036.15152115 490.7299913 -1037.07614517 490.33495712 C-1057.61884481 482.73102915 -1078.3629703 490.81242396 -1092.688694 506.36791611 Z " fill="#E93F5F" transform="translate(1314.6886940002441,9.632083892822266)"/>
<path d="M0 0 C1.64240662 -0.00101212 1.64240662 -0.00101212 3.31799316 -0.00204468 C88.5392407 0.08080716 174.51804195 21.91848994 236.4375 83.3125 C273.0982417 120.33924746 294.85986087 170.70922403 300.125 222.25 C300.2178125 223.14525391 300.310625 224.04050781 300.40625 224.96289062 C308.34862978 309.54923533 275.95830741 394.1821119 222.53564453 458.94506836 C212.91603077 470.32312328 201.80584624 479.80624127 189.98925781 488.81835938 C188.08069057 490.28402705 186.19173941 491.77238433 184.3046875 493.265625 C167.85757935 506.18892717 150.33402096 517.94601342 132.125 528.25 C131.35639648 528.68699219 130.58779297 529.12398437 129.79589844 529.57421875 C84.73718843 555.04294373 36.49737578 573.51305755 -13.875 585.25 C-14.51703369 585.40084045 -15.15906738 585.55168091 -15.82055664 585.70709229 C-98.05094479 604.99377219 -183.32587095 607.15055137 -643.875 499.25 C-644.58078186 498.96360657 -645.28656372 498.67721313 -646.01373291 498.38214111 C-673.66916991 487.13827364 -700.65274852 474.26718457 -727.68359375 461.61328125 C-734.74032796 458.31023042 -741.80653995 455.02786744 -748.875 451.75 C-761.66473404 445.81670179 -774.44239577 439.85781258 -787.21679688 433.89160156 C-791.5576285 431.86446229 -795.89962942 429.83984408 -800.2421875 427.81640625 C-815.23380825 420.82961854 -830.20956082 413.80997376 -845.16894531 406.75439453 C-853.38651563 402.88028345 -861.61914374 399.04206228 -869.875 395.25 C-865.4738431 389.64661015 -860.95333429 385.92386101 -855 382.0625 C-853.29361377 380.92611344 -851.58921623 379.78673557 -849.88671875 378.64453125 C-849.04028809 378.07686035 -848.19385742 377.50918945 -847.32177734 376.92431641 C-843.73726298 374.47145275 -840.26847592 371.87965134 -836.8125 369.25 C-831.28146073 365.04900942 -825.70306083 360.9279514 -820.0625 356.875 C-813.8022487 352.37458014 -807.57513288 347.83289986 -801.375 343.25 C-793.75196339 337.61832218 -786.09035716 332.04346549 -778.39453125 326.51171875 C-775.21071506 324.22118842 -772.04467572 321.90807637 -768.88671875 319.58203125 C-768.06888916 318.98269775 -767.25105957 318.38336426 -766.40844727 317.76586914 C-764.83888138 316.6150663 -763.27277508 315.45952538 -761.71069336 314.29858398 C-761.00436768 313.78239502 -760.29804199 313.26620605 -759.5703125 312.734375 C-758.6424292 312.04939941 -758.6424292 312.04939941 -757.69580078 311.35058594 C-755.66815921 310.12497476 -754.23627555 309.50214484 -751.875 309.25 C-749.81396484 310.01586914 -749.81396484 310.01586914 -747.5859375 311.28515625 C-746.74087646 311.75735596 -745.89581543 312.22955566 -745.02514648 312.71606445 C-744.10934814 313.24288818 -743.1935498 313.76971191 -742.25 314.3125 C-740.24921374 315.43321304 -738.24788974 316.5529665 -736.24609375 317.671875 C-735.19921387 318.26162109 -734.15233398 318.85136719 -733.07373047 319.45898438 C-727.85054635 322.38352099 -722.58374418 325.22574839 -717.3125 328.0625 C-715.70242065 328.93032104 -715.70242065 328.93032104 -714.05981445 329.81567383 C-704.60343398 334.89493802 -695.08111081 339.84157484 -685.53491211 344.74926758 C-679.71064903 347.74377222 -673.90008097 350.75950322 -668.11083984 353.82106018 C-657.61860929 359.36810661 -647.05525252 364.76001026 -636.4375 370.0625 C-635.1403154 370.71088837 -635.1403154 370.71088837 -633.81692505 371.37237549 C-619.7496282 378.39594601 -605.60845539 385.20334298 -591.28857422 391.69921875 C-588.32531632 393.04542203 -585.36691021 394.40168312 -582.41035461 395.76252747 C-512.37205959 427.97570926 -438.88255511 455.64311439 -162.96875 452.78515625 C-109.31991753 432.61602599 -61.11226494 401.82583021 -18.875 363.25 C-17.91851563 362.38632812 -16.96203125 361.52265625 -15.9765625 360.6328125 C-7.09714568 352.59283635 1.61744967 344.38089434 9.3984375 335.25390625 C11.34241046 332.99766614 13.35823518 330.81636107 15.375 328.625 C20.95811892 322.42048842 26.07266125 315.88638427 31.125 309.25 C31.67349609 308.53134766 32.22199219 307.81269531 32.78710938 307.07226562 C45.73048639 290.03380887 57.2138585 272.21898227 67.125 253.25 C67.87716797 251.82083252 67.87716797 251.82083252 68.64453125 250.36279297 C82.10413713 224.49562462 91.80388419 197.16301573 96.125 168.25 C96.23263672 167.53972656 96.34027344 166.82945312 96.45117188 166.09765625 C97.40259065 158.85067923 97.36856961 151.54805457 97.375 144.25 C97.37567474 143.56058319 97.37634949 142.87116638 97.37704468 142.16085815 C97.36058231 131.56109564 96.82618403 121.55371006 94.125 111.25 C93.87556641 110.26918457 93.87556641 110.26918457 93.62109375 109.26855469 C85.82664851 79.31767715 66.59338571 54.53536896 40.24365234 38.48193359 C13.46014671 22.90811826 -18.17067774 15.43261124 -48.875 13.25 C-49.90415527 13.16387451 -50.93331055 13.07774902 -51.99365234 12.98901367 C-65.27760137 11.99214861 -78.56124995 12.13932764 -91.875 12.1875 C-94.30729074 12.19252673 -96.73958249 12.19708756 -99.171875 12.20117188 C-105.07293906 12.21208057 -110.97396468 12.22872501 -116.875 12.25 C-116.875 11.92 -116.875 11.59 -116.875 11.25 C-97.68555811 7.88337207 -78.5152722 4.88620417 -59.125 2.9375 C-58.33036346 2.85673218 -57.53572693 2.77596436 -56.7170105 2.69274902 C-37.79789567 0.79041345 -19.01609276 0.01061929 0 0 Z " fill="#700CAF" transform="translate(1326.875,188.75)"/>
<path d="M0 0 C2.01592342 -0.00692793 4.03182713 -0.01898604 6.04772568 -0.03116226 C91.66550899 -0.42829176 178.45110195 23.34402829 245.311306 78.36791611 C245.89170639 78.84390244 246.47210678 79.31988876 247.07009506 79.81029892 C262.09101432 92.22748231 276.40674678 105.90975712 288.311306 121.36791611 C289.2558698 122.52690675 290.20405493 123.68295165 291.155056 124.83666611 C298.12870427 133.33038303 304.44098557 142.07943442 310.311306 151.36791611 C310.67256577 151.93349228 311.03382553 152.49906845 311.40603256 153.08178329 C336.59193562 192.75820592 352.23444423 237.24964975 359.561306 283.55541611 C359.71244858 284.50223251 359.86359116 285.44904892 360.01931381 286.42455673 C362.79192064 305.16312294 363.69353463 323.94681416 363.623806 342.86791611 C363.62107178 344.4254863 363.62107178 344.4254863 363.61828232 346.01452255 C363.35438423 435.87740801 332.35291376 527.38331793 275.311306 597.36791611 C274.28816381 598.65487678 273.26610075 599.94269582 272.24489975 601.23119736 C265.69948778 609.44246592 258.86767629 617.27680627 251.66628647 624.91576767 C249.61363917 627.11561382 247.62113313 629.36789421 245.623806 631.61791611 C233.84135884 644.72615587 233.84135884 644.72615587 227.311306 648.36791611 C229.84143211 642.88597619 233.39790179 638.16103117 237.21706772 633.52636337 C283.67252749 577.13601215 312.4983424 504.16547497 312.561306 430.80541611 C312.56198074 430.08992599 312.56265549 429.37443588 312.56335068 428.63726425 C312.49193671 380.42683268 299.79486354 330.86286868 271.311306 291.36791611 C270.62681381 290.41014267 269.94232162 289.45236923 269.23708725 288.46557236 C256.95281517 271.68221319 242.90914472 255.9831076 226.311306 243.36791611 C225.68159897 242.88886826 225.05189194 242.4098204 224.40310287 241.91625595 C174.42257006 204.17225527 115.1717836 186.77965457 53.311306 181.36791611 C52.22220932 181.27220322 51.13311264 181.17649033 50.01101303 181.07787704 C38.28826426 180.17150406 26.56362432 180.1244662 14.811306 180.11791611 C13.16758514 180.11690399 13.16758514 180.11690399 11.49065781 180.11587143 C-25.92153327 180.15214819 -62.83726528 183.9937823 -99.688694 190.36791611 C-98.4010817 190.35744247 -97.11346939 190.34696884 -95.78683853 190.33617783 C-35.07185143 189.88649261 32.09621604 191.47149736 78.248806 236.80541611 C102.59432246 261.59377962 110.82986431 294.02140737 110.61483383 327.94909286 C110.37035592 347.72501921 106.36531654 366.60680908 100.311306 385.36791611 C99.95093246 386.54402451 99.95093246 386.54402451 99.58327866 387.74389267 C84.98478949 435.3248858 54.78654036 479.60400192 20.936306 515.55932236 C18.87256689 517.76740036 16.8867534 519.99901205 14.936306 522.30541611 C7.69832162 530.66377645 -0.35084227 538.60714914 -8.7902565 545.74682236 C-11.01769433 547.6488526 -13.15892371 549.6339933 -15.313694 551.61791611 C-20.97534996 556.72467776 -26.94313665 561.3877976 -32.97873306 566.03881454 C-34.50782591 567.22733274 -36.01762403 568.44057863 -37.5246315 569.65697861 C-54.92437923 583.52910625 -74.15540005 595.75010209 -93.688694 606.36791611 C-94.55848892 606.84390244 -95.42828384 607.31988876 -96.32443619 607.81029892 C-153.2107525 638.75693759 -215.75959671 656.04426087 -280.688694 655.36791611 C-280.688694 654.70791611 -280.688694 654.04791611 -280.688694 653.36791611 C-279.59875137 653.11268173 -279.59875137 653.11268173 -278.4867897 652.85229111 C-204.09652717 635.35554314 -127.98776048 610.02071381 -67.43234634 561.75756454 C-65.88690261 560.52588354 -64.32964479 559.30905849 -62.77072525 558.09447861 C-57.6808463 554.1014883 -52.84189259 549.88427232 -48.063694 545.52416611 C-45.92482842 543.5823013 -43.75450015 541.68814014 -41.563694 539.80541611 C-34.69299752 533.78839334 -28.680544 527.33623143 -22.969944 520.20775986 C-21.49276767 518.36887768 -19.9938986 516.54712788 -18.469944 514.74682236 C9.57751838 481.51452978 25.61907287 440.05165098 22.311306 396.36791611 C18.97582406 365.88232851 4.28889597 340.12849544 -16.688694 318.36791611 C-17.28037369 317.72467392 -17.87205338 317.08143173 -18.48166275 316.41869736 C-58.59048563 273.93305535 -126.00023827 259.81765773 -181.688694 255.36791611 C-182.3604567 255.31006943 -183.03221939 255.25222275 -183.72433853 255.19262314 C-261.92498195 248.65488639 -342.11352102 264.27010724 -417.03464127 285.36571884 C-420.90664354 286.42769314 -424.79037251 287.40767077 -428.688694 288.36791611 C-428.688694 287.70791611 -428.688694 287.04791611 -428.688694 286.36791611 C-407.67454283 275.58633895 -386.49757792 265.44363389 -364.688694 256.36791611 C-363.70860367 255.95989761 -363.70860367 255.95989761 -362.70871353 255.54363632 C-318.27124348 237.10362578 -272.51391709 223.17089663 -225.751194 211.99291611 C-224.87255692 211.78140915 -223.99391983 211.56990219 -223.08865738 211.35198593 C-214.57110283 209.30823935 -206.08468692 207.35062324 -197.4308815 205.97729111 C-181.82967579 203.41225085 -172.98522122 199.55314028 -162.57687759 187.50365829 C-160.07083104 184.66904552 -157.36924784 182.07266668 -154.64572525 179.44921494 C-148.13847078 173.15221233 -142.22597711 166.53864637 -136.688694 159.36791611 C-135.88045181 158.36502548 -135.07220963 157.36213486 -134.23947525 156.32885361 C-121.52269729 140.43715509 -108.5451414 120.6503312 -110.688694 99.36791611 C-112.59893411 91.09404479 -116.05179803 84.04779392 -123.29904556 79.31664658 C-137.64196226 70.74739451 -154.00142509 67.27182653 -170.61447525 67.16479111 C-171.35094788 67.15777679 -172.0874205 67.15076248 -172.84621048 67.14353561 C-175.23126763 67.12604864 -177.61607492 67.11967531 -180.001194 67.11791611 C-180.82337418 67.11724136 -181.64555435 67.11656662 -182.49264908 67.11587143 C-197.39579875 67.13519568 -211.93934921 68.14347546 -226.688694 70.36791611 C-227.79422623 70.52888779 -228.89975845 70.68985947 -230.03879166 70.85570908 C-278.57551639 78.07072128 -325.83972198 92.6101521 -371.9933815 108.94213486 C-373.61615005 109.5152037 -373.61615005 109.5152037 -375.27170181 110.0998497 C-377.24010908 110.79906082 -379.20582258 111.50592248 -381.16818619 112.22192001 C-382.43517349 112.67510605 -382.43517349 112.67510605 -383.7277565 113.13744736 C-384.45172623 113.40146347 -385.17569595 113.66547958 -385.92160416 113.93749619 C-387.688694 114.36791611 -387.688694 114.36791611 -389.688694 113.36791611 C-389.688694 112.70791611 -389.688694 112.04791611 -389.688694 111.36791611 C-311.6296713 71.84155434 -230.57034623 38.15732397 -66.73422623 3.62505722 C-64.7611203 3.37702072 -62.7888518 3.12235012 -60.81662369 2.86742783 C-40.59726746 0.37035024 -20.34963636 0.05857032 0 0 Z " fill="#FC7F61" transform="translate(1314.6886940002441,9.632083892822266)"/>
<path d="M0 0 C6.42591653 3.67460274 12.8990953 7.2621012 19.375 10.84765625 C36.28086617 20.21958292 53.10817737 29.72925367 69.875 39.34765625 C68.29150988 43.70484149 64.89564617 46.1706852 61.4375 49.03515625 C60.80497314 49.5677002 60.17244629 50.10024414 59.52075195 50.64892578 C57.645518 52.22341244 55.76227796 53.78763703 53.875 55.34765625 C52.50214844 56.48267578 52.50214844 56.48267578 51.1015625 57.640625 C49.37052806 59.06007324 47.63599931 60.47526825 45.8984375 61.88671875 C42.87665516 64.34630903 39.86896768 66.82220995 36.86376953 69.30200195 C23.88418661 80.01154115 10.85556493 90.64734628 -2.40722656 101.00488281 C-4.73180591 102.82199287 -7.05158621 104.64517281 -9.37109375 106.46875 C-11.11925152 107.84313685 -12.86821714 109.21649119 -14.6171875 110.58984375 C-16.97943086 112.44560947 -19.33844214 114.30538469 -21.6953125 116.16796875 C-24.59811978 118.46160374 -27.51236797 120.74014341 -30.43017578 123.01464844 C-32.13146576 124.35274168 -33.81412959 125.71195055 -35.49609375 127.07421875 C-36.55945248 127.91592499 -37.62323479 128.75709646 -38.6875 129.59765625 C-39.61691406 130.3453125 -40.54632813 131.09296875 -41.50390625 131.86328125 C-44.125 133.34765625 -44.125 133.34765625 -46.37255859 133.13012695 C-49.71401654 132.1802092 -52.65408853 130.82096216 -55.78515625 129.3125 C-57.1326485 128.6690241 -58.48014205 128.02555092 -59.82763672 127.38208008 C-60.53724548 127.04060944 -61.24685425 126.69913879 -61.97796631 126.34732056 C-75.38891743 119.9004247 -88.89615821 113.68851837 -102.5 107.66015625 C-103.25000275 107.32708466 -104.00000549 106.99401306 -104.7727356 106.65084839 C-132.23398347 93.65059828 -132.23398347 93.65059828 -161.75 96.41015625 C-180.56560863 104.33132321 -191.69352692 120.46084421 -199.4375 138.66015625 C-206.30996772 156.50052144 -210.50289706 179.04159587 -203.125 197.34765625 C-199.42321266 205.28967273 -195.23963004 209.84981367 -187.4375 213.66015625 C-171.64338126 216.93818089 -158.29349789 210.89358419 -144.83984375 203.37109375 C-142.0053623 201.78962342 -139.18364032 200.45663695 -136.125 199.34765625 C-139.6098574 203.17381412 -143.58806695 205.88654733 -147.875 208.72265625 C-148.65649414 209.24013428 -149.43798828 209.7576123 -150.24316406 210.29077148 C-193.16326267 238.35101905 -250.23122377 269.43776912 -303.49365234 258.76049805 C-320.28171161 254.98498056 -333.58238612 246.01023444 -343.015625 231.7421875 C-354.21270673 213.72318006 -356.55780935 193.18940545 -356.5 172.41015625 C-356.49912384 171.63175385 -356.49824768 170.85335144 -356.49734497 170.05136108 C-356.36718772 134.57157523 -348.45098857 99.86508652 -338.81787109 65.87744141 C-338.21147029 63.66337334 -337.68245478 61.44925207 -337.17578125 59.2109375 C-336.03879475 54.59998914 -334.11201364 50.39729019 -332.125 46.09765625 C-331.72764648 45.23068115 -331.33029297 44.36370605 -330.92089844 43.47045898 C-329.66786295 40.75693666 -328.39944308 38.051184 -327.125 35.34765625 C-326.73248047 34.51057129 -326.33996094 33.67348633 -325.93554688 32.81103516 C-317.2751601 14.48903992 -307.07209668 -3.01546264 -294.125 -18.65234375 C-293.66270996 -19.22001465 -293.20041992 -19.78768555 -292.72412109 -20.37255859 C-277.95759396 -38.46217063 -261.40492338 -51.91447876 -240.125 -61.65234375 C-239.26648438 -62.06226563 -238.40796875 -62.4721875 -237.5234375 -62.89453125 C-162.22881611 -96.27255929 -63.83659515 -36.51823885 0 0 Z " fill="#F65CFA" transform="translate(406.125,404.65234375)"/>
<path d="M0 0 C22.14045516 21.74771982 33.56294587 51.6743126 34.0065918 82.50170898 C34.1240584 105.94632338 30.93028581 127.82221352 23.71411133 150.18481445 C23.35373779 151.36092285 23.35373779 151.36092285 22.98608398 152.56079102 C8.38759482 200.14178415 -21.81065431 244.42090027 -55.66088867 280.3762207 C-57.72462778 282.58429871 -59.71044127 284.8159104 -61.66088867 287.12231445 C-68.89887305 295.48067479 -76.94803694 303.42404748 -85.38745117 310.5637207 C-87.614889 312.46575095 -89.75611839 314.45089165 -91.91088867 316.43481445 C-97.57254463 321.54157611 -103.54033133 326.20469595 -109.57592773 330.85571289 C-111.10502058 332.04423109 -112.6148187 333.25747698 -114.12182617 334.47387695 C-131.52157391 348.3460046 -150.75259472 360.56700043 -170.28588867 371.18481445 C-171.15568359 371.66080078 -172.02547852 372.13678711 -172.92163086 372.62719727 C-229.80794717 403.57383594 -292.35679138 420.86115922 -357.28588867 420.18481445 C-357.28588867 419.52481445 -357.28588867 418.86481445 -357.28588867 418.18481445 C-356.19594604 417.92958008 -356.19594604 417.92958008 -355.08398438 417.66918945 C-280.69372184 400.17244149 -204.58495516 374.83761215 -144.02954102 326.57446289 C-142.48409728 325.34278189 -140.92683946 324.12595684 -139.36791992 322.91137695 C-134.27804097 318.91838664 -129.43908726 314.70117067 -124.66088867 310.34106445 C-122.52202309 308.39919965 -120.35169482 306.50503849 -118.16088867 304.62231445 C-111.29019219 298.60529168 -105.27773867 292.15312977 -99.56713867 285.0246582 C-98.08996234 283.18577602 -96.59109327 281.36402623 -95.06713867 279.5637207 C-67.01967629 246.33142813 -50.9781218 204.86854932 -54.28588867 161.18481445 C-57.62137061 130.69922686 -72.3082987 104.94539379 -93.28588867 83.18481445 C-93.87756836 82.54157227 -94.46924805 81.89833008 -95.07885742 81.2355957 C-135.1876803 38.74995369 -202.59743295 24.63455607 -258.28588867 20.18481445 C-258.95765137 20.12696777 -259.62941406 20.06912109 -260.3215332 20.00952148 C-338.52217662 13.47178474 -418.71071569 29.08700559 -493.63183594 50.18261719 C-497.50383821 51.24459149 -501.38756718 52.22456911 -505.28588867 53.18481445 C-505.28588867 52.52481445 -505.28588867 51.86481445 -505.28588867 51.18481445 C-484.2717375 40.4032373 -463.09477259 30.26053223 -441.28588867 21.18481445 C-440.63249512 20.91280212 -439.97910156 20.64078979 -439.3059082 20.36053467 C-359.72717182 -12.66188394 -271.8661468 -36.54987141 -181.28588867 -43.81518555 C-180.60623047 -43.87158203 -179.92657227 -43.92797852 -179.22631836 -43.98608398 C-118.46483134 -48.97330657 -46.46315343 -43.9599086 0 0 Z " fill="#E6E5E5" transform="translate(1391.285888671875,244.815185546875)"/>
<path d="M0 0 C1.20747487 3.62242462 0.70807023 5.33711067 -0.07421875 9.0546875 C-0.32792236 10.29573242 -0.58162598 11.53677734 -0.84301758 12.81542969 C-0.98091705 13.4768396 -1.11881653 14.13824951 -1.26089478 14.81970215 C-3.66772765 26.41533707 -5.72346151 38.01332346 -7.3125 49.75 C-7.47129639 50.91901855 -7.63009277 52.08803711 -7.79370117 53.29248047 C-8.21909 56.52599623 -8.61839844 59.76104669 -9 63 C-9.1045752 63.86294678 -9.20915039 64.72589355 -9.31689453 65.61499023 C-10.18678423 73.7513378 -10.22092691 81.90211913 -10.24023438 90.07641602 C-10.24988694 92.53371748 -10.28098288 94.99016103 -10.3125 97.44726562 C-10.45715045 118.91764052 -7.43498173 141.76662797 7.90625 158.01953125 C12.43527084 162.28795367 17.1333712 164.97316123 23 167 C23.639375 167.22558594 24.27875 167.45117188 24.9375 167.68359375 C56.60600445 176.65221317 93.91624348 157.49241387 121.15356445 143.38696289 C125.79606974 141 125.79606974 141 128 141 C128.32871094 142.051875 128.32871094 142.051875 128.6640625 143.125 C131.37088693 151.22346658 134.27843028 158.37412473 142.1875 162.4375 C152.34944494 166.90715231 162.7718592 165.54821448 173.03613281 161.81005859 C178.31986343 159.63061824 183.30301934 156.80915481 188.28515625 154.0234375 C191.1196377 152.44196717 193.94135968 151.1089807 197 150 C193.5151426 153.82615787 189.53693305 156.53889108 185.25 159.375 C184.46850586 159.89247803 183.68701172 160.40995605 182.88183594 160.94311523 C139.96173733 189.0033628 82.89377623 220.09011287 29.63134766 209.4128418 C12.84328839 205.63732431 -0.45738612 196.66257819 -9.890625 182.39453125 C-21.08770673 164.37552381 -23.43280935 143.8417492 -23.375 123.0625 C-23.37412384 122.2840976 -23.37324768 121.50569519 -23.37234497 120.70370483 C-23.24216522 85.21778684 -15.30251025 50.55101801 -5.70214844 16.55224609 C-5.0580812 14.2111199 -4.46919268 11.86469708 -3.90234375 9.50390625 C-3.00305656 6.01186897 -1.73318611 3.15124746 0 0 Z " fill="#C347C4" transform="translate(73,454)"/>
<path d="M0 0 C93.47644386 -1.12873283 187.8617625 13.4182121 257.5 81.26538086 C295.17307264 118.61876013 317.63447166 169.47650774 323 222 C323.0928125 222.89525391 323.185625 223.79050781 323.28125 224.71289062 C331.1940484 308.98419355 299.06740514 392.37158581 246.55078125 457.30859375 C245.47569329 458.60517267 244.39648321 459.89834857 243.3125 461.1875 C242.81943359 461.78208008 242.32636719 462.37666016 241.81835938 462.98925781 C240.6134531 464.38765885 239.31367842 465.70324498 238 467 C237.01 467 236.02 467 235 467 C237.12554893 463.22951989 239.53939134 460.07674718 242.375 456.8125 C280.4213133 411.96560362 305.68670603 355.66729165 316 298 C316.16516113 297.12166504 316.33032227 296.24333008 316.50048828 295.33837891 C321.64058014 267.03332292 321.76802697 234.17182515 316 206 C315.79600586 204.97003906 315.59201172 203.94007813 315.38183594 202.87890625 C303.69550395 145.11066253 272.46072692 93.31480997 224 59 C223.03513672 58.31599121 223.03513672 58.31599121 222.05078125 57.61816406 C162.71090404 15.98848732 91.52330699 3.82268629 20.5 2.4375 C18.40494161 2.39418417 16.30988944 2.35056637 14.21484375 2.30664062 C9.14329399 2.20095346 4.07167817 2.09932569 -1 2 C-0.67 1.34 -0.34 0.68 0 0 Z " fill="#6814AA" transform="translate(1304,189)"/>
<path d="M0 0 C42.94772173 8.571779 85.81292895 33.97536223 119 62 C120.04117035 62.85477157 121.08285875 63.70891242 122.125 64.5625 C136.33034064 76.32548229 149.73778957 89.37593571 161 104 C161.9445638 105.15899064 162.89274893 106.31503555 163.84375 107.46875 C170.81739828 115.96246692 177.12967957 124.71151831 183 134 C183.54188965 134.84836426 183.54188965 134.84836426 184.09472656 135.71386719 C209.28062962 175.39028981 224.92313824 219.88173365 232.25 266.1875 C232.40114258 267.13431641 232.55228516 268.08113281 232.70800781 269.05664062 C235.48061464 287.79520683 236.38222863 306.57889805 236.3125 325.5 C236.31067719 326.53838013 236.30885437 327.57676025 236.30697632 328.64660645 C236.04307823 418.50949191 205.04160776 510.01540182 148 580 C146.97685781 581.28696067 145.95479475 582.57477971 144.93359375 583.86328125 C138.38818178 592.07454982 131.55637029 599.90889016 124.35498047 607.54785156 C122.30233317 609.74769771 120.30982713 611.9999781 118.3125 614.25 C106.53005284 627.35823976 106.53005284 627.35823976 100 631 C102.73111104 625.08259275 106.56008086 620.16385607 110.9375 615.375 C112.18853516 613.99441406 112.18853516 613.99441406 113.46484375 612.5859375 C115.84940908 610.15360738 118.3309269 608.10716297 121 606 C122.05724646 604.90914913 123.07970977 603.78338209 124.0625 602.625 C124.96162109 601.56925781 124.96162109 601.56925781 125.87890625 600.4921875 C126.57886719 599.66976562 127.27882813 598.84734375 128 598 C129.28197266 596.54980469 129.28197266 596.54980469 130.58984375 595.0703125 C150.4476475 572.51998304 167.58725267 547.34180837 182 521 C182.47356934 520.14180664 182.94713867 519.28361328 183.43505859 518.39941406 C210.93175988 468.25890312 227.81962725 412.07335253 232 355 C232.05639648 354.27554687 232.11279297 353.55109375 232.17089844 352.8046875 C236.99182487 289.13422714 225.84550512 223.19534598 197 166 C196.58540527 165.16275391 196.17081055 164.32550781 195.74365234 163.46289062 C183.14843835 138.1226979 167.02636995 114.92513192 148 94 C147.10933838 93.01676758 147.10933838 93.01676758 146.20068359 92.01367188 C137.46554315 82.35617223 137.46554315 82.35617223 127.875 73.5703125 C126.54861046 72.45946126 125.25972563 71.30310108 124 70.1171875 C109.8780275 56.82880365 93.59966754 45.92427738 77 36 C76.34676758 35.60651367 75.69353516 35.21302734 75.02050781 34.80761719 C51.39446299 20.69065818 26.07148184 10.57926019 0 2 C0 1.34 0 0.68 0 0 Z " fill="#F0495D" transform="translate(1442,27)"/>
<path d="M0 0 C7.67873202 -0.07100545 15.35738052 -0.12354451 23.03636265 -0.15543652 C26.60598789 -0.17077965 30.17538133 -0.19140352 33.74487305 -0.22631836 C74.31689478 -0.61198674 118.99726634 1.81687473 157 17 C153.42394998 18.19201667 152.12570416 17.71485291 148.53125 16.7421875 C147.41516357 16.44844238 146.29907715 16.15469727 145.14916992 15.85205078 C143.34283081 15.36841064 143.34283081 15.36841064 141.5 14.875 C125.19412035 10.64216143 108.70605332 7.24018404 92 5 C92 5.66 92 6.32 92 7 C51.08 7 10.16 7 -32 7 C-32 6.67 -32 6.34 -32 6 C-10.76299315 3.61067786 10.31629676 2.70688367 31.6875 2.75 C33.36903168 2.75157104 33.36903168 2.75157104 35.08453369 2.75317383 C51.07501558 2.78475303 67.02755729 3.25275425 83 4 C65.53905758 2.15194801 48.15394044 1.59656298 30.60699463 1.39910889 C27.13960255 1.35822105 23.67235286 1.30752888 20.20507812 1.2578125 C13.47015762 1.16261178 6.73514422 1.07774094 0 1 C0 0.67 0 0.34 0 0 Z " fill="#F59648" transform="translate(1285,10)"/>
<path d="M0 0 C7.67873202 -0.07100545 15.35738052 -0.12354451 23.03636265 -0.15543652 C26.60598789 -0.17077965 30.17538133 -0.19140352 33.74487305 -0.22631836 C74.31689478 -0.61198674 118.99726634 1.81687473 157 17 C153.42394998 18.19201667 152.12570416 17.71485291 148.53125 16.7421875 C147.41580811 16.44836182 146.30036621 16.15453613 145.15112305 15.85180664 C143.94625244 15.52946045 142.74138184 15.20711426 141.5 14.875 C113.13230409 7.29602972 113.13230409 7.29602972 84 6 C83.505 5.01 83.505 5.01 83 4 C81.19353164 3.53919661 81.19353164 3.53919661 78.97631836 3.38916016 C78.10439346 3.30846283 77.23246857 3.2277655 76.3341217 3.1446228 C75.36663498 3.0685379 74.39914825 2.992453 73.40234375 2.9140625 C72.38687973 2.83048492 71.37141571 2.74690735 70.32518005 2.66079712 C57.10583785 1.66521261 43.85725415 1.54821278 30.60699463 1.39910889 C27.13960255 1.35822105 23.67235286 1.30752888 20.20507812 1.2578125 C13.47015762 1.16261178 6.73514422 1.07774094 0 1 C0 0.67 0 0.34 0 0 Z " fill="#FFA14C" transform="translate(1285,10)"/>
</svg>
